<svg xmlns="http://www.w3.org/2000/svg" viewBox="0 0 300 300">
  <path fill="#fec601" d="M154.32 250c0-32.38 60.38-23.27 60.38-59.7v-38.84c0 36.43-60.38 27.32-60.38 59.7z"/>
  <path fill="#73bfb8" d="M145.68 250c0-32.38-60.38-23.27-60.38-59.7v-38.84c0 36.43 60.38 27.32 60.38 59.7z"/>
  <path fill="#f49d0c" d="M154.32 199.27c0-32.38 60.38-23.28 60.38-59.7v-38.83c0 36.43-60.38 27.32-60.38 59.7z"/>
  <path fill="#3da5d9" d="M145.68 199.27c0-32.38-60.38-23.28-60.38-59.7v-38.83c0 36.43 60.38 27.32 60.38 59.7z"/>
  <path fill="#ea7317" d="M154.32 148.54c0-32.39 60.38-23.28 60.38-59.7V50c0 36.43-60.38 27.32-60.38 59.7z"/>
  <path fill="#2364aa" d="M145.68 148.54c0-32.39-60.38-23.28-60.38-59.71V50c0 36.43 60.38 27.32 60.38 59.7z"/>
</svg>
