<svg xmlns="http://www.w3.org/2000/svg" xml:space="preserve" fill="#1a1a1a" version="1.1" viewBox="0 0 300 300">
  <path fill="#263238" d="M0 0h300v300H0Z" display="inline"/>
  <path fill="#fec601" d="M155.34 273.65c0-40.04 74.66-28.78 74.66-73.82v-48.02c0 45.04-74.66 33.78-74.66 73.81z"/>
  <path fill="#73bfb8" d="M144.66 273.65c0-40.04-74.66-28.78-74.66-73.82v-48.02c0 45.04 74.66 33.78 74.66 73.81z"/>
  <path fill="#f49d0c" d="M155.34 210.92c0-40.04 74.66-28.78 74.66-73.82v-48c0 45.04-74.66 33.77-74.66 73.8z"/>
  <path fill="#3da5d9" d="M144.66 210.92c0-40.04-74.66-28.78-74.66-73.82v-48c0 45.04 74.66 33.77 74.66 73.8z"/>
  <path fill="#ea7317" d="M155.34 148.2c0-40.05 74.66-28.79 74.66-73.82V26.35c0 45.05-74.66 33.78-74.66 73.82z"/>
  <path fill="#2364aa" d="M144.66 148.2c0-40.05-74.66-28.79-74.66-73.84v-48c0 45.04 74.66 33.77 74.66 73.81z"/>
</svg>
